<?xml version="1.0" encoding="UTF-8"?>
<svg id="Layer_1" data-name="Layer 1" xmlns="http://www.w3.org/2000/svg" viewBox="0 0 776.63 914.16">
  <defs>
    <style>
      .cls-1 {
        stroke-width: 0px;
        fill: #FFF;
      }
    </style>
  </defs>
  <path class="cls-1" d="M488.75,188.58l-29.94,14.23-.99.53.06.32-2.41,12.85-4.82-.53,3.37-17.52,24.95-11.14,9.79,1.26ZM612.83,350.85l-10.64-.46-4.18,44.7,12.12.43,2.7-44.67ZM427.64,213.45l2.47-16.24-41.47,13.75,8.27-.9,30.72,3.39ZM546.12,704.2l1.49-4.3-66.82,18.3,4.85,2.79,60.47-16.79ZM582.89,219.69l-41.47-4.04-1.52,10.18,41.96,4.63,1.03-10.77ZM520.38,212.46l-59.85-6.68-2.08,11.06,60.29,6.65,1.64-11.03ZM437.24,745.27l-25.28,7.41-3.21-14.75-6.68,1.83,5.69,24.87,29.47-19.36ZM311.66,202.04v17.35l7.28-.8-.13-13.18-.13-.49,1.17-.53,42.31-19-.43-6.49-50.07,23.12ZM366.46,743.25l3-9.01-58.4-15.99-3,10.31,58.4,14.7ZM414.21,748.9l30.65-8.99-1.94-11.33-31.27,8.56,2.56,11.76ZM385.11,208.98l48.71-16.16-3.19,20.96,8.01.88,5.42-34.16-67.07,25.6.38,6.09,7.75-.85v-2.37ZM345.71,759.06l26.21-7.67,4.8-15.16-4.36-1.19-3.59,10.81v.29s-1.08.33-1.08.33l-31.51,10.03,9.53,2.57ZM604.13,521.38l5.01-93.25-7.17-8.96-6.2-.2-.77,8.27,6.36,5.85-4.78,84.48-9.06,6.51-1.57-.17-.54,5.78,6.93.61,11.77-8.92ZM661.5,330.13l.57-6.06-11.12-1.04,3.35-48.78,12.29,1.43.55-5.93-18.42-2.16-1.15,17.13-2.99-.2,1.36-20.27,21.49,2.52.41-4.38-21.88-2.48.02-.37-16.74-29.04-8.2-1.03,18.73,34.17-2.63,1.44-19.77-36.07-7.24-.91,24.44,44.17-.64,12.99-25.41-2.51-.58,6.2,39.87,3.81-1.85,30.59-40.93-3.23-.57,6.05c9.42.04,26.08.43,42.28,2.4l14.76,1.57ZM644.63,295.46l-36.98-3.54-.56,5.97,30.23,3.07-.7,11.22-30.62-2.65-.71,7.58,37.84,2.99,1.49-24.64ZM634.15,303.66l-27.34-2.78-.53,5.67,27.54,2.38.33-5.27ZM657.08,277.59l-2.94,42.72,8.2.77,3.97-42.41-9.23-1.08ZM653.45,180.84l-14.78-1.63,6.53,9.33-1.08,20.78,28.39,2.91.64-6.81-21.37-1.58,1.66-22.99ZM660.16,224.02l-2.16,26.08,10.84,1.44,2.45-26.16-11.13-1.36ZM606.44,227.62l-3.33-.42-.53,5.54,7.13.79-3.27-5.9ZM362.37,188.6l-32.17,14.44,26.13-3.31.8,14.68,6.88-.75-1.65-25.06ZM640.55,410.51l-15.99-.38-4.56,75.53-2.99-.18,4.55-75.44-24.86-.95-.64,6.89,7.39.24,8.75,10.93-.03.57-4.26,79.31,20.79-14.76,1.55-28.41h.09s2.3-34.51,2.3-34.51l20.85-17.74.35.42.38-4.02-13.43-.58-.23,3.09ZM603.39,224.21l27.7,3.49,15.23,26.42,1.9-30.28-17.28-2.14-27.02-2.9-.52,5.42ZM586.71,520.98l6.96-5,4.62-81.63-3.63-3.35-8.41,89.93.47.05ZM631.08,281.95l.44-8.99-18.9-34.16-3.83,40.94,22.29,2.2ZM308.66,201.79l-18.09-14.71-21.3,20.97,14.26-1.69,16.89,14.25,8.24-.9v-17.93ZM189.26,743.49l-3.66-37.18-20.12,1.12.62,6.61,12.9-1.01,2.79,29.07,8.58,2.35-1.1-.97ZM198.93,738.5l-3.67-43.52-18.78.84-3.8-35.94-11.62.37.5,5.32,6.31-.23,2.74,32.02-6.05.28.64,6.8,23.1-1.29,3.83,38.87,4.77,4.23,14.41,3.95-12.39-11.7ZM171.36,649.62l-1.72-17.05,2.98-.3,2.05,20.24-14.28.47.4,4.27,14.59-.46.04.34,21.36,25.84,8.26-.35-24.17-30.56,2.35-1.86,25.52,32.26,7.29-.31-31.48-39.47-1.54-12.91,32.42-2.26-.58-6.23-46.78,3.4-3.29-30.46,47.14-4.21-.61-6.56c-5.78,1.06-27.13,4.76-48.17,5.75l-8.68.34.58,6.18,4.87-.36,4.84,48.65-5.17.27.53,5.71,11.25-.37ZM161.85,668.56l2.44,26.1,3.07-.14-2.23-26.07-3.29.12ZM136.54,397.96l14.15,13.28,30.96-32.93,10.39-.83-.8-8.57-26.21,2.78-5.2-53.83-13.13,39.74,2.78,31.29-13.74.56.8,8.53ZM155.31,598.7l3.98,42.58,2.16-.11-4.24-42.61-1.9.14ZM365.5,792.42l3.17-13.64-51.9-13.65-3.6,12.96,3.88,1.06,2.27-8.54,42.72,11.82-1.96,8.51,5.41,1.48ZM319.95,779.95l37.25,10.2,1.29-5.59-37.03-10.25-1.5,5.64ZM367,213.33l7.37-.81-.53-8.57,1.12-.29,72.85-27.81-6.21,39.14,6.04.67,3.71-19.29,27.14-12.12,36.27,4.66,13.84-7.15-12.16-16.03-4.96-.55-2.12,15.55-59.1-7.23,1.39-14.92-6.73-.74-1.26,13.87-77.59,27.7.91,13.92ZM392.01,792.7l-12.17-55.62-.23-.06-5.32,16.8-28.55,8.35-35.31-9.52-14.68,5.21,10.31,18.28,4.22,1.15,4.39-15.82,57.58,15.14-3.86,16.59,20.23,5.54,3.39-6.06ZM292.6,758.37l-17.89-3.88.64-2.93,18.13,3.93,16.84-5.98,20.51,5.53,30.99-9.87-57.5-14.47,3.85-13.25-5.63-1.54-4.84,16.01-35.46,11.3-.91-2.86,33.96-10.82,4.36-14.43-6.21-1.7-3.7,12.72-46.24-10.95,3.4-14.51-5.22-1.43-4.69,20.7,32,7.98-.73,2.91-34.85-8.69,5.36-23.7-6.2-1.7-7.19,30.55,28.07,6.67-.69,2.92-30.98-7.36,7.9-33.57-8.08-2.21-.04-.38-13.73.62,3.49,36.26-2.99.29-3.79-39.4,16.74-.76-.51-5.44-25.38,1.08-19.43-23.5,3.19,30.17,18.84-.84,3.81,45.25,15.65,14.78,6.2,1.7,17.01-9.78,22.87,4.7,30.17-9.03.86,2.88-30.89,9.24-22.5-4.62-13.44,7.73,9.57,2.62,6.31-4.28,37.86,8.41,8.19,10.21,12.31,3.37-9.4-16.66ZM244.25,756.25l-3.12,2.11,43.62,11.95-4.94-6.16-35.57-7.9ZM635.54,430.82l-2.28,34.22h-.07s-2.09,38.48-2.09,38.48l12.64,16.65.84-8.95-8.64-11.95,1.56-23.58,2.99.2-1.49,22.5,6,8.29,8.53-91.16-17.97,15.29ZM607.26,519.01l20.84-15.79.39-7.12-20.79,14.76-.44,8.15ZM593.14,555.78l-10.11-.5-3.23,34.51,11.22.74,2.11-34.75ZM501.55,164.09l-38.33-4.23-.36,3.92,38.08,5.15.61-4.85ZM634.37,193.37l-1.67,25.52,18.68,2.31-2.26,36.04,18.99,2.15.46-4.87-13.79-1.83,2.65-32.03,14.14,1.72.67-7.17-31.26-3.2,1.17-22.6-7.45-10.64-11.95-1.32,11.62,15.92ZM448.11,741.11l.23.52-1.16.69-38.7,25.43,1.45,6.34,45.77-30.77-2.81-17.48-7.07,1.94,2.28,13.34ZM482.79,734.59l-19.34-11.64-7.65,2.09,2.9,18.04,20.2,11.65,17.7-24.08-13.81,3.93ZM454.66,158.92l-1.12,11.96,53.26,6.51,1.71-12.54-3.99-.44-.99,7.9-43.93-5.95.62-6.84-5.58-.61ZM353.52,203.11l-31.69,4.02.11,11.14,32.21-3.52-.64-11.63ZM531.68,180.83l18.25,1.43-.23,2.99-18.49-1.44-15.88,8.2-.46-.06-20.6-2.65-29.38,13.96,58.93,6.57-2.08,14,5.8.64,2.67-16.74,33.61-15.98,1.29,2.71-32.19,15.3-2.4,15.04,6.4.71,1.95-13.11,47.29,4.61-1.31,13.79,5.36.59,1.74-19.98-32.79-3.59.33-2.98,35.71,3.91-2.01,22.97,6.4.71,2.87-29.87-28.71-2.82.29-2.99,31.69,3.11-1.53,15.96,25.52,2.74,1.59-24.28-12.59-17.26-6.52-.72-17.81,13.74-32.62-3.33-28.65,13.01-1.24-2.73,29.38-13.34,32.24,3.29,14.4-11.11-10.33-1.14-7.35,6.6-.66-.07-47.31-4.94-9.17-8.7-12.51-1.38,11.11,14.64ZM589.2,178.15l4.37-3.92-55.56-6.13,5.56,5.28,45.63,4.76ZM603.12,340.4l-.65,7,13.54.59-3.06,50.63-15.22-.54-.75,8.03,26.2,1h0s14.59.34,14.59.34l.13-1.66,1.87-26.42-18.37.04,2.2-38.84-20.48-.18ZM601.65,722.41l14.16-35.88,12.33.23.43-4.63-14-.36,2.34-38.6,2.99.18-2.15,35.5,11.1.29.6-6.37-5.09-.23,4.24-52.12,5.71.4.64-6.9-8.72-.28-24.22,44.7-2.64-1.43,25.1-46.33,10.75.35.67-7.21-6.56-.34,5.56-66.14,7.16.69.42-4.54-13.02-1.66-2.29,28.79-23.06,43.54-.03.38-25.57-.9-.71,7.54,24.06.96-8.47,16.82-2.68-1.35,6.37-12.66-19.57-.78-.69,7.38,16.97,23.9,25.47-48.31,2.65,1.4-27.74,52.62-17.78-25.04-1.13,12.11,30.63,45.66-9.4,26.96-22.09-9.11-4.87-7.75-8.34,2.28-6.22,17.86-36.97,10.52,3.8,31.47-49.64,12.91-10.11,13.66,14.17-3.88-1.04-5.26,55.43-14.62.99,4.71,7.08-1.94-3.21-23.98,54.16-13.81-22.18-18.17,1.9-2.32,26.77,21.93-57.33,14.62,2.8,20.93,6.82-1.87-2.41-14.87,24.44-6.07,2.47,14.24,7.57-2.07-1.61-9.85,39.69-10.34,2.3,9.13,2.42-.66,1.32-14.11-22.98-1.92ZM429.65,156.16l-25.1-2.77-.58,5.21,25.15,3.32.52-5.76ZM654.99,201.06l18.44,1.37,1.79-19.19-18.8-2.07-1.44,19.89ZM381.63,164.33l-17.73,1.82,1.98,30.15,74.98-26.77,1.09-12.02-9.32-1.03-.8,8.81-31.16-4.11.9-8.13-4.63-.51-6.57.72-8.74,11.05ZM646.39,331.54c-16.24-1.97-32.94-2.35-42.22-2.38l-.77,8.24,23.38.21-2.2,38.8,18.42-.04-1.99,28.07,13.49.58.36-3.87-9.7-.67,3.88-58.89-4.97-.59-1.45,26.86-3-.16,1.63-30.05,9.56,1.14h0s9.78,1.08,9.78,1.08l.63-6.75-14.82-1.58ZM386.18,153.73l-55.06,6.02,10.05,5.72,38.89-4,6.12-7.74ZM242.99,171.54l51.11-5.06-.1-2.66-51.11,5.59.1,2.13ZM576.44,699.24l18.27,7.54,7.87-22.55-27.74-41.36-.96,10.28,19.97,32.48-3.68,11.47-2.86-.92,3.26-10.16-17.15-27.91-2.96,31.6,5.99,9.52ZM605.31,545.51l-21.25-1.33-.76,8.1,13.01.64-2.48,40.78-14.31-.94-.73,7.77,22.51.8,4.01-55.82ZM648.35,397.69l6.79.47,5.17-55.31-8.28-.92-3.68,55.76ZM151.44,186.11l35.09-3.37-.02-7.17-35.65,3.9.58,6.63ZM626.72,528.34l16.05,2.05.54-5.8-14.04-18.5-36.03,27.3-8.1-.71-.8,8.52,24.17,1.51-3.87,53.94,19.59-36.99,2.49-31.31ZM632.6,600.53l3.59.19,5.59-59.81-4.14-.4-5.05,60.03ZM617.83,689.57l-11.91,30.19,18.98,1.59.58-6.23-10.21-1.09,5.71-17.19,6.17.38.7-7.46-10.03-.19ZM627.6,669.68l2.13.1,4.3-45.97-2.68-.19-3.75,46.06ZM616.42,733.64l-34.11,8.89,1.12,6.84,34.57-9.47-1.58-6.26ZM528.35,762.54l-49.66,13.1.45,2.28,49.58-13.58-.38-1.8ZM568.07,741.69l-18.63,4.63,1.91,11.83,18.69-5.12-1.97-11.34ZM557.69,697.14l-6.57,1.8-2.69,7.73-63.2,17.55-8.52-4.9-9.26,2.54,15.77,9.49,69.44-19.76,5.03-14.44ZM141.77,193.35l-7.96,37.74-12.7,1.91.43,4.62,14.28-2.04,4.15,38.45-2.98.32-3.81-35.36-11.35,1.62.59,6.35,5.3-.65,4.53,52.09-4.97.49.64,6.86,7.79-1.06,16.41-48.12,2.84.97-17.01,49.87-9.75,1.33.68,7.23,5.48-.64,5.57,66.14-4.9.35.43,4.61,10.75-.44-2.56-28.77,15.46-46.79-.04-.37,26.32-3.51-.7-7.53-24.7,3.18,5.54-18,2.87.88-4.17,13.55,20.18-2.59-.63-6.77-.08.08-21.33-21.33-17.04,51.88-2.85-.94,18.56-56.52,22.32,22.32-1.16-12.36-38.18-40.28,4.77-28.15,23.3,5.29,20.66,23.12,7.41-.81,8.83-16.38,38.17-4.52,1.24-31.67,51.05-4.87,12.56-12.28-15.03,1.64.21,5.7-57.05,5.65-.25-5.1-7.27.8-.64,24.47-55.67,5.05,19.02,21.46-2.25,1.99-22.96-25.9,58.92-5.34.56-21.39-7.04.77.02,15.34-25.09,2.12-.18-14.7-7.8.85.03,10.22-40.82,3.92-.84-9.58-31.42,3.44,1.14,12.16,24.17-2.05ZM619.31,711.43l6.46.69,1.12-11.93-3.77-.23-3.81,11.47ZM138,196.68l-20.13,1.71.58,6.21,11.27-.7-2.76,17.9-6.83.73.7,7.48,10.47-1.57,6.7-31.76ZM126.19,207.12l-7.46.46,1.12,11.96,4.5-.48,1.84-11.94ZM125,249.68l-2.3.28,4.3,45.96,2-.2-4-46.04ZM176.29,716.26l-9.91.77,2,21.41,10.31,2.82-2.4-25ZM432.36,784.11l-37.76,10.11-2.99,5.35,4.23,1.16h.01s46.74-12.8,46.74-12.8l-10.23-3.83ZM200.46,185.83l19.13-1.62v-12.26s-19.28,2.11-19.28,2.11l.15,11.77ZM184.14,395.54l9.09,81.26,6.44,4.18,2.03-.18-8.56-91.52-2.98.17-6.02,6.09ZM172.92,391.97l10.64,92.78,8.56,7.63,10.52-1.43-.67-7.15-3.07.28-8.5-5.52-9.41-84.09,7.84-7.93,4.02-.23-.55-5.83-9.28.74-10.12,10.76ZM192.84,561.56l16.22-2.03-4.18-44.71-16.85,2.25,4.8,44.49ZM142.39,420.46l-4.13-4.06,7.79,83.26,11.03-13.15-3.47-34.12h.07s-4.37-38.31-4.37-38.31l-12.36-11.6.87,9.29,7.44,7.31,2.4,23.51-2.98.3-2.29-22.43ZM153.13,420.96l18.03-18.02-.93-8.11-17.91,19.05.81,7.08ZM161.51,537.94l18.1-3.11,4.32,38.66,26.05-4.18-.63-6.79-19.16,2.39-5.44-50.43,19.86-2.65-.75-8-30.62,3.99h0l-14.45,2.1.16,1.69h0l2.56,26.32ZM155.54,507.36l15.83-2.3-8.13-75.23,2.98-.32,8.12,75.14,29.23-3.81-.65-6.91-11.76,1.6-10.45-9.31-9.12-79.48-18.03,18.02,3.22,28.27h-.09s3.5,34.42,3.5,34.42l-13.75,16.4.71,7.61,8.67-1.04-.28-3.07ZM215.7,630.5l-29.34,2.04,1.07,8.93,32.31,40.51.78-.03-4.81-51.45ZM250.18,210.32l14.23-1.69,31.65-31.17-44.77,4.27-1.11,28.58ZM301.16,176.66l-8.44,8.31,17.66,14.36,51.14-23.61-.61-9.26-20.38,2.1-14.49-8.24-9.2,1.01-15.68,15.34ZM203.79,231.19l6.78-.74,3.73-6.93.78-.09,64.4-7.22,7.28,5.9,9.55-1.04-13.71-11.57-71.69,8.5-7.11,13.19ZM278.56,219.34l-62.37,6.99-2.01,3.73,68.37-7.48-3.99-3.24ZM170.73,621.48l43.82-3.18-.55-5.93-36.99,2.47-1.18-11.18,37.07-3.03-.71-7.63-44.1,3.94,2.65,24.55ZM149.99,521.31l-1.9.19,5.19,55.54,2.4-.14-5.69-55.59ZM131.63,318.68l-2.47.29,5.6,59.88,1.93-.14-5.06-60.03ZM163,586.2c21.18-1,42.71-4.78,48.01-5.75l-.76-8.15-28.96,4.64-4.31-38.62-18.15,3.12-2.73-28.02-8.67,1.04.38,4.05,4.86-.48,6.01,58.71,5-.25-3.05-26.72,2.98-.34,3.42,29.9-9.6.47-3.86.22.61,6.52,8.83-.35ZM447.53,786.58l9.86-2.7,12.69-17.15h0l7.03-9.56-19.72-11.37-46.75,31.42,2.07,9.04,19.79-5.3,15.03,5.62ZM399.18,740.55l-3.34.91-12.74-3.49,11.62,53.1,15.09-4.04-10.63-46.49ZM178.01,356.22l11.91-1.42-3.22-34.47-12.41,1.27,3.72,34.61ZM515.09,725.39l-13.78,3.92-26.31,35.79,43.52-11.32-3.43-28.39ZM290.54,712.63l-40.74-11.16-2.7,11.49,40.55,9.6,2.89-9.93ZM179.7,611.64l34.03-2.27-.54-5.76-34.04,2.78.55,5.25ZM167.72,368.37l23.23-2.46-.76-8.12-14.85,1.77-4.37-40.62,15.43-1.58-.73-7.79-23.34,3.11,5.38,55.71ZM170.5,211.99l-19.27-4.38-3.99,23.55,34.52,36.41-.98-10.52-25.16-28.74,1.71-11.93,2.97.43-1.52,10.56,21.51,24.58-1.68-18.01,10.48-1.15-18.6-20.81Z"/>
</svg>